<?xml version="1.0" standalone="no"?>
<!DOCTYPE svg PUBLIC "-//W3C//DTD SVG 20010904//EN"
 "http://www.w3.org/TR/2001/REC-SVG-20010904/DTD/svg10.dtd">
<svg version="1.0" xmlns="http://www.w3.org/2000/svg"
 width="512.000000pt" height="512.000000pt" viewBox="0 0 512.000000 512.000000"
 preserveAspectRatio="xMidYMid meet">
<metadata>
Created by potrace 1.16, written by Peter Selinger 2001-2019
</metadata>
<g transform="translate(0.000000,512.000000) scale(0.100000,-0.100000)"
fill="#000000" stroke="none">
<path d="M1201 3808 c-415 -52 -773 -410 -830 -831 -7 -47 -11 -288 -11 -598
l0 -519 139 0 140 0 3 548 c4 606 4 596 73 737 88 180 259 319 455 371 57 15
137 18 618 21 l552 4 0 -420 0 -421 -780 0 -780 0 0 -140 0 -140 780 0 780 0
0 -280 0 -280 140 0 140 0 0 980 0 980 -672 -1 c-370 -1 -706 -6 -747 -11z"/>
<path d="M3598 3390 c-254 -43 -464 -202 -574 -435 -58 -123 -78 -227 -71
-369 17 -326 215 -583 537 -697 63 -22 78 -23 458 -27 l392 -3 0 140 0 141
-342 0 c-371 0 -398 3 -507 56 -110 54 -221 197 -250 324 -38 164 19 341 147
462 78 72 161 114 257 128 39 5 242 10 453 10 l382 0 0 -691 0 -691 -26 -49
c-15 -27 -44 -60 -68 -76 l-41 -28 -597 -3 -598 -3 0 -140 0 -140 623 3 624 3
84 42 c133 66 230 179 263 308 14 51 16 173 16 902 l0 843 -557 -1 c-307 -1
-579 -5 -605 -9z"/>
</g>
</svg>
